<svg width="14" height="14" viewBox="0 0 14 14" fill="none" xmlns="http://www.w3.org/2000/svg">
<path d="M8.56 4.3075L10.5025 6.25H3.25V7.75H10.5025L8.56 9.6925L9.625 10.75L13.375 7L9.625 3.25L8.56 4.3075ZM12.25 13.75C12.6478 13.75 13.0294 13.592 13.3107 13.3107C13.592 13.0294 13.75 12.6478 13.75 12.25V8.7475L12.25 10.2475V12.25H1.75V1.75H12.25V3.7525L13.75 5.2525V1.75C13.75 1.35218 13.592 0.970645 13.3107 0.689341C13.0294 0.408035 12.6478 0.25 12.25 0.25H1.75C0.9175 0.25 0.25 0.925 0.25 1.75V12.25C0.25 13.0825 0.9175 13.75 1.75 13.75H12.25Z" fill="white"/>
</svg>
