<svg width="150" height="147" viewBox="0 0 150 147" fill="none" xmlns="http://www.w3.org/2000/svg">
<g clip-path="url(#clip0_2_1774)">
<path d="M95.2261 32.9291H54.8077C53.8866 32.9302 53.0036 33.2966 52.3523 33.9479C51.701 34.5992 51.3346 35.4822 51.3335 36.4033V126.234L50.8703 126.375L40.955 129.411C40.4851 129.555 39.9775 129.506 39.5437 129.275C39.1099 129.045 38.7853 128.651 38.6412 128.182L9.14775 31.8428C9.00421 31.3729 9.05313 30.8652 9.28375 30.4314C9.51437 29.9975 9.90781 29.6729 10.3776 29.529L25.6571 24.8505L69.9528 11.2919L85.2321 6.61339C85.4646 6.54182 85.709 6.51682 85.9512 6.5398C86.1934 6.56278 86.4287 6.6333 86.6436 6.74731C86.8585 6.86133 87.0489 7.01661 87.2037 7.20427C87.3585 7.39192 87.4748 7.60827 87.546 7.84093L95.0849 32.4659L95.2261 32.9291Z" fill="#F2F2F2"/>
<path d="M104.046 32.4659L94.9598 2.78717C94.8086 2.29267 94.5615 1.8328 94.2325 1.43384C93.9036 1.03489 93.4992 0.704665 93.0426 0.462042C92.586 0.219419 92.086 0.0691507 91.5712 0.0198293C91.0565 -0.0294921 90.5371 0.0231001 90.0427 0.174595L68.5607 6.75005L24.2674 20.3109L2.78546 26.8887C1.78752 27.1951 0.951933 27.885 0.462107 28.8068C-0.027719 29.7287 -0.131765 30.8073 0.172812 31.8058L31.2273 133.235C31.4747 134.041 31.974 134.747 32.6518 135.248C33.3296 135.75 34.1502 136.021 34.9934 136.022C35.3836 136.022 35.7716 135.963 36.1444 135.848L50.8703 131.341L51.3335 131.197V130.713L50.8703 130.854L36.0078 135.406C35.1269 135.674 34.1755 135.582 33.3623 135.15C32.549 134.718 31.9403 133.981 31.6697 133.101L0.617601 31.6691C0.483518 31.233 0.436787 30.7747 0.480081 30.3205C0.523375 29.8662 0.655841 29.425 0.869901 29.022C1.08396 28.6191 1.37541 28.2623 1.72755 27.9721C2.07969 27.682 2.48561 27.4641 2.92207 27.3311L24.404 20.7533L68.6975 7.19474L90.1794 0.616978C90.5105 0.515948 90.8546 0.464436 91.2008 0.464113C91.9436 0.465781 92.6663 0.705257 93.2632 1.14747C93.86 1.58967 94.2996 2.21138 94.5175 2.92151L103.562 32.4659L103.706 32.9291H104.187L104.046 32.4659Z" fill="#3F3D56"/>
<path d="M28.4143 29.6048C27.9679 29.6045 27.5334 29.4611 27.1744 29.1957C26.8154 28.9303 26.551 28.5569 26.4198 28.1302L23.4366 18.3859C23.3564 18.1241 23.3286 17.8491 23.3547 17.5766C23.3808 17.3041 23.4604 17.0394 23.5888 16.7977C23.7172 16.5559 23.892 16.3419 24.1032 16.1677C24.3144 15.9935 24.5578 15.8626 24.8196 15.7825L65.5691 3.30702C66.0977 3.14571 66.6687 3.20073 67.1568 3.45999C67.6449 3.71926 68.0103 4.16159 68.1726 4.68991L71.1558 14.4343C71.317 14.9629 71.262 15.5339 71.0027 16.022C70.7435 16.5101 70.3012 16.8754 69.7729 17.0378L29.0233 29.5133C28.826 29.5738 28.6207 29.6047 28.4143 29.6048Z" fill="#41BCC3"/>
<path d="M44.0418 10.412C46.6001 10.412 48.674 8.33809 48.674 5.77978C48.674 3.22147 46.6001 1.14755 44.0418 1.14755C41.4835 1.14755 39.4095 3.22147 39.4095 5.77978C39.4095 8.33809 41.4835 10.412 44.0418 10.412Z" fill="#41BCC3"/>
<path d="M44.0418 8.71306C45.6618 8.71306 46.9751 7.39978 46.9751 5.77978C46.9751 4.15978 45.6618 2.84651 44.0418 2.84651C42.4218 2.84651 41.1085 4.15978 41.1085 5.77978C41.1085 7.39978 42.4218 8.71306 44.0418 8.71306Z" fill="white"/>
<path d="M139.577 134.838H61.2928C60.7708 134.838 60.2704 134.63 59.9014 134.261C59.5323 133.892 59.3247 133.391 59.3241 132.869V39.0668C59.3247 38.5448 59.5323 38.0444 59.9014 37.6754C60.2704 37.3063 60.7708 37.0987 61.2928 37.0981H139.577C140.099 37.0987 140.6 37.3063 140.969 37.6754C141.338 38.0445 141.546 38.5449 141.546 39.0668V132.869C141.546 133.391 141.338 133.892 140.969 134.261C140.6 134.63 140.099 134.838 139.577 134.838Z" fill="#E6E6E6"/>
<path d="M103.562 32.4659H54.8076C53.7638 32.4673 52.7632 32.8827 52.0251 33.6207C51.287 34.3588 50.8717 35.3595 50.8702 36.4033V130.854L51.3335 130.713V36.4033C51.3346 35.4822 51.701 34.5992 52.3523 33.9479C53.0036 33.2966 53.8866 32.9302 54.8076 32.9291H103.705L103.562 32.4659ZM146.063 32.4659H54.8076C53.7638 32.4673 52.7632 32.8827 52.0251 33.6207C51.287 34.3588 50.8717 35.3595 50.8702 36.4033V142.481C50.8717 143.525 51.287 144.526 52.0251 145.264C52.7632 146.002 53.7638 146.417 54.8076 146.419H146.063C147.106 146.417 148.107 146.002 148.845 145.264C149.583 144.526 149.998 143.525 150 142.481V36.4033C149.998 35.3595 149.583 34.3588 148.845 33.6207C148.107 32.8827 147.106 32.4673 146.063 32.4659ZM149.537 142.481C149.536 143.402 149.169 144.285 148.518 144.937C147.867 145.588 146.984 145.954 146.063 145.956H54.8076C53.8866 145.954 53.0036 145.588 52.3523 144.937C51.701 144.285 51.3346 143.402 51.3335 142.481V36.4033C51.3346 35.4822 51.701 34.5992 52.3523 33.9479C53.0036 33.2966 53.8866 32.9302 54.8076 32.9291H146.063C146.984 32.9302 147.867 33.2966 148.518 33.9479C149.169 34.5992 149.536 35.4822 149.537 36.4033V142.481Z" fill="#3F3D56"/>
<path d="M121.744 42.6568H79.127C78.5743 42.6561 78.0445 42.4363 77.6537 42.0455C77.2629 41.6548 77.0431 41.1249 77.0425 40.5723V30.3814C77.0431 29.8287 77.2629 29.2989 77.6537 28.9081C78.0445 28.5173 78.5743 28.2975 79.127 28.2969H121.744C122.296 28.2975 122.826 28.5173 123.217 28.9081C123.608 29.2989 123.827 29.8287 123.828 30.3814V40.5723C123.827 41.1249 123.608 41.6548 123.217 42.0455C122.826 42.4363 122.296 42.6561 121.744 42.6568Z" fill="#41BCC3"/>
<path d="M100.435 28.9917C102.994 28.9917 105.067 26.9178 105.067 24.3595C105.067 21.8012 102.994 19.7272 100.435 19.7272C97.8769 19.7272 95.803 21.8012 95.803 24.3595C95.803 26.9178 97.8769 28.9917 100.435 28.9917Z" fill="#41BCC3"/>
<path d="M100.435 27.1809C101.993 27.1809 103.257 25.9177 103.257 24.3595C103.257 22.8012 101.993 21.538 100.435 21.538C98.8769 21.538 97.6136 22.8012 97.6136 24.3595C97.6136 25.9177 98.8769 27.1809 100.435 27.1809Z" fill="white"/>
</g>
<defs>
<clipPath id="clip0_2_1774">
<rect width="150" height="146.419" fill="white"/>
</clipPath>
</defs>
</svg>
