<svg width="23" height="17" viewBox="0 0 23 17" fill="none" xmlns="http://www.w3.org/2000/svg">
<path d="M17.38 2.55599C16.68 2.55599 16.07 2.77212 15.47 2.97796C14.77 1.73263 13.46 0.909274 12.05 0.909274C10.95 0.909274 9.95 1.42387 9.24 2.14431C8.44 1.11511 7.23 0.384384 5.83 0.384384C3.5 0.384384 1.5 2.35015 1.5 4.74818C1.5 5.35541 1.71 5.97292 1.91 6.59044C0.8 7.21825 0 8.45329 0 9.89416C0 11.9526 1.61 13.7228 3.62 13.7228C3.92 13.7228 4.22 13.7228 4.42 13.6199C4.82 15.1739 6.33 16.3164 8.14 16.3164C9.84 16.3164 11.25 15.2769 11.75 13.8257C12.26 14.0418 12.76 14.2477 13.26 14.2477C14.57 14.2477 15.77 13.4964 16.37 12.3848C16.68 12.4672 17 12.4672 17.28 12.4672C19.89 12.4672 22 10.3161 22 7.52701C22.1 4.74818 20 2.55599 17.38 2.55599Z" fill="#41BCC3"/>
</svg>
