<svg width="18" height="19" viewBox="0 0 18 19" fill="none" xmlns="http://www.w3.org/2000/svg">
<path d="M16 0.0875854C16.5304 0.0875854 17.0391 0.304451 17.4142 0.690475C17.7893 1.0765 18 1.60006 18 2.14598V16.5547C18 17.1007 17.7893 17.6242 17.4142 18.0102C17.0391 18.3963 16.5304 18.6131 16 18.6131H2C1.46957 18.6131 0.960859 18.3963 0.585786 18.0102C0.210714 17.6242 0 17.1007 0 16.5547V2.14598C0 1.60006 0.210714 1.0765 0.585786 0.690475C0.960859 0.304451 1.46957 0.0875854 2 0.0875854H16ZM15.5 16.0401V10.5854C15.5 9.69555 15.1565 8.84214 14.5452 8.21292C13.9338 7.5837 13.1046 7.23021 12.24 7.23021C11.39 7.23021 10.4 7.7654 9.92 8.56817V7.42576H7.13V16.0401H9.92V10.9662C9.92 10.1737 10.54 9.52532 11.31 9.52532C11.6813 9.52532 12.0374 9.67713 12.2999 9.94735C12.5625 10.2176 12.71 10.5841 12.71 10.9662V16.0401H15.5ZM3.88 5.80992C4.32556 5.80992 4.75288 5.62775 5.06794 5.30349C5.383 4.97923 5.56 4.53944 5.56 4.08087C5.56 3.12372 4.81 2.34153 3.88 2.34153C3.43178 2.34153 3.00193 2.52478 2.68499 2.85097C2.36805 3.17716 2.19 3.61957 2.19 4.08087C2.19 5.03802 2.95 5.80992 3.88 5.80992ZM5.27 16.0401V7.42576H2.5V16.0401H5.27Z" fill="#41BCC3"/>
</svg>
