<svg width="135" height="24" viewBox="0 0 135 24" fill="none" xmlns="http://www.w3.org/2000/svg">
<path d="M32.655 7.7C33.555 7.7 34.345 7.855 35.025 8.165C35.705 8.475 36.285 8.935 36.765 9.545L35.61 10.88C35.2 10.36 34.75 9.98 34.26 9.74C33.78 9.49 33.22 9.365 32.58 9.365C32.16 9.365 31.81 9.42 31.53 9.53C31.26 9.64 31.06 9.785 30.93 9.965C30.81 10.145 30.75 10.345 30.75 10.565C30.75 10.835 30.855 11.065 31.065 11.255C31.275 11.435 31.635 11.585 32.145 11.705L33.99 12.125C34.97 12.345 35.67 12.675 36.09 13.115C36.52 13.545 36.735 14.105 36.735 14.795C36.735 15.445 36.565 16.005 36.225 16.475C35.885 16.935 35.41 17.29 34.8 17.54C34.19 17.78 33.49 17.9 32.7 17.9C32.01 17.9 31.375 17.82 30.795 17.66C30.225 17.49 29.715 17.26 29.265 16.97C28.815 16.68 28.44 16.345 28.14 15.965L29.31 14.57C29.54 14.89 29.825 15.175 30.165 15.425C30.505 15.675 30.89 15.875 31.32 16.025C31.76 16.165 32.22 16.235 32.7 16.235C33.11 16.235 33.455 16.19 33.735 16.1C34.025 16 34.24 15.865 34.38 15.695C34.53 15.515 34.605 15.3 34.605 15.05C34.605 14.79 34.515 14.57 34.335 14.39C34.165 14.2 33.845 14.055 33.375 13.955L31.365 13.505C30.785 13.365 30.285 13.185 29.865 12.965C29.455 12.735 29.14 12.445 28.92 12.095C28.71 11.735 28.605 11.31 28.605 10.82C28.605 10.23 28.765 9.7 29.085 9.23C29.405 8.76 29.865 8.39 30.465 8.12C31.075 7.84 31.805 7.7 32.655 7.7ZM42.6704 12.965C42.6704 12.535 42.5454 12.2 42.2954 11.96C42.0554 11.72 41.7354 11.6 41.3354 11.6C40.9654 11.6 40.6404 11.695 40.3604 11.885C40.0804 12.075 39.8754 12.39 39.7454 12.83L37.9904 12.29C38.1604 11.63 38.5304 11.1 39.1004 10.7C39.6804 10.3 40.4554 10.1 41.4254 10.1C42.0854 10.1 42.6604 10.205 43.1504 10.415C43.6404 10.615 44.0204 10.92 44.2904 11.33C44.5704 11.74 44.7104 12.255 44.7104 12.875V15.92C44.7104 16.3 44.8904 16.49 45.2504 16.49C45.4204 16.49 45.5804 16.465 45.7304 16.415L45.6104 17.69C45.3504 17.82 45.0254 17.885 44.6354 17.885C44.2854 17.885 43.9704 17.825 43.6904 17.705C43.4104 17.585 43.1904 17.405 43.0304 17.165C42.8704 16.915 42.7904 16.605 42.7904 16.235V16.175L43.1504 16.115C43.0904 16.495 42.9254 16.82 42.6554 17.09C42.3854 17.35 42.0554 17.55 41.6654 17.69C41.2854 17.83 40.8904 17.9 40.4804 17.9C39.9704 17.9 39.5304 17.825 39.1604 17.675C38.7904 17.515 38.5054 17.285 38.3054 16.985C38.1054 16.685 38.0054 16.315 38.0054 15.875C38.0054 15.315 38.1854 14.86 38.5454 14.51C38.9054 14.15 39.4204 13.905 40.0904 13.775L42.9104 13.205L42.8954 14.48L41.0954 14.84C40.7554 14.91 40.4954 15.005 40.3154 15.125C40.1454 15.235 40.0604 15.42 40.0604 15.68C40.0604 15.93 40.1504 16.12 40.3304 16.25C40.5204 16.38 40.7454 16.445 41.0054 16.445C41.2154 16.445 41.4204 16.42 41.6204 16.37C41.8204 16.32 42.0004 16.24 42.1604 16.13C42.3204 16.02 42.4454 15.87 42.5354 15.68C42.6254 15.49 42.6704 15.26 42.6704 14.99V12.965ZM49.0337 6.965V15.44C49.0337 15.79 49.0937 16.035 49.2137 16.175C49.3337 16.315 49.5337 16.385 49.8137 16.385C49.9837 16.385 50.1237 16.375 50.2337 16.355C50.3437 16.325 50.4837 16.285 50.6537 16.235L50.4737 17.585C50.3037 17.685 50.0887 17.76 49.8287 17.81C49.5787 17.87 49.3287 17.9 49.0787 17.9C48.3487 17.9 47.8137 17.725 47.4737 17.375C47.1437 17.015 46.9787 16.445 46.9787 15.665V6.965H49.0337ZM55.2788 17.9C54.4888 17.9 53.7988 17.745 53.2088 17.435C52.6288 17.125 52.1788 16.68 51.8588 16.1C51.5388 15.52 51.3788 14.82 51.3788 14C51.3788 13.18 51.5388 12.48 51.8588 11.9C52.1788 11.32 52.6238 10.875 53.1938 10.565C53.7738 10.255 54.4338 10.1 55.1738 10.1C55.9338 10.1 56.5788 10.255 57.1088 10.565C57.6388 10.865 58.0438 11.28 58.3238 11.81C58.6038 12.33 58.7438 12.925 58.7438 13.595C58.7438 13.795 58.7388 13.985 58.7288 14.165C58.7188 14.345 58.7038 14.505 58.6838 14.645H52.6987V13.22H57.7838L56.7938 13.58C56.7938 12.95 56.6488 12.465 56.3588 12.125C56.0788 11.785 55.6788 11.615 55.1588 11.615C54.7788 11.615 54.4488 11.705 54.1688 11.885C53.8988 12.065 53.6938 12.335 53.5538 12.695C53.4138 13.045 53.3438 13.49 53.3438 14.03C53.3438 14.56 53.4188 15 53.5688 15.35C53.7288 15.69 53.9488 15.945 54.2288 16.115C54.5188 16.285 54.8638 16.37 55.2638 16.37C55.7038 16.37 56.0588 16.285 56.3288 16.115C56.5988 15.945 56.8088 15.71 56.9588 15.41L58.5938 16.04C58.4338 16.43 58.1888 16.765 57.8588 17.045C57.5388 17.325 57.1538 17.54 56.7038 17.69C56.2638 17.83 55.7888 17.9 55.2788 17.9ZM63.4853 17.9C62.7253 17.9 62.0303 17.765 61.4003 17.495C60.7803 17.225 60.2753 16.845 59.8853 16.355L61.0703 15.155C61.3103 15.515 61.6303 15.81 62.0303 16.04C62.4303 16.27 62.9053 16.385 63.4553 16.385C63.8453 16.385 64.1553 16.33 64.3853 16.22C64.6253 16.1 64.7453 15.915 64.7453 15.665C64.7453 15.505 64.6903 15.37 64.5803 15.26C64.4703 15.14 64.2503 15.045 63.9203 14.975L62.6003 14.705C61.7303 14.525 61.1103 14.255 60.7403 13.895C60.3803 13.525 60.2003 13.05 60.2003 12.47C60.2003 12.06 60.3203 11.675 60.5603 11.315C60.8103 10.955 61.1803 10.665 61.6703 10.445C62.1603 10.215 62.7703 10.1 63.5003 10.1C64.2503 10.1 64.9003 10.22 65.4503 10.46C66.0103 10.69 66.4503 11.035 66.7703 11.495L65.5403 12.695C65.3203 12.345 65.0303 12.08 64.6703 11.9C64.3203 11.71 63.9503 11.615 63.5603 11.615C63.2803 11.615 63.0403 11.645 62.8403 11.705C62.6403 11.765 62.4903 11.85 62.3903 11.96C62.2903 12.06 62.2403 12.19 62.2403 12.35C62.2403 12.51 62.3103 12.65 62.4503 12.77C62.5903 12.88 62.8453 12.975 63.2153 13.055L64.7453 13.37C65.4853 13.52 66.0153 13.775 66.3353 14.135C66.6553 14.485 66.8153 14.91 66.8153 15.41C66.8153 15.89 66.6853 16.32 66.4253 16.7C66.1753 17.07 65.8003 17.365 65.3003 17.585C64.8103 17.795 64.2053 17.9 63.4853 17.9ZM73.039 17.75V10.25H74.884L74.959 11.6C75.209 11.1 75.549 10.725 75.979 10.475C76.419 10.225 76.904 10.1 77.434 10.1C77.974 10.1 78.459 10.225 78.889 10.475C79.329 10.725 79.659 11.095 79.879 11.585C80.039 11.255 80.254 10.98 80.524 10.76C80.794 10.54 81.094 10.375 81.424 10.265C81.754 10.155 82.089 10.1 82.429 10.1C82.919 10.1 83.364 10.2 83.764 10.4C84.174 10.6 84.499 10.9 84.739 11.3C84.979 11.7 85.099 12.21 85.099 12.83V17.75H83.044V13.235C83.044 12.685 82.924 12.295 82.684 12.065C82.444 11.835 82.134 11.72 81.754 11.72C81.454 11.72 81.174 11.795 80.914 11.945C80.664 12.095 80.464 12.32 80.314 12.62C80.174 12.91 80.104 13.275 80.104 13.715V17.75H78.049V13.235C78.049 12.685 77.924 12.295 77.674 12.065C77.434 11.835 77.124 11.72 76.744 11.72C76.484 11.72 76.224 11.79 75.964 11.93C75.714 12.07 75.504 12.29 75.334 12.59C75.174 12.89 75.094 13.285 75.094 13.775V17.75H73.039ZM91.4937 12.965C91.4937 12.535 91.3687 12.2 91.1187 11.96C90.8787 11.72 90.5587 11.6 90.1587 11.6C89.7887 11.6 89.4637 11.695 89.1837 11.885C88.9037 12.075 88.6987 12.39 88.5687 12.83L86.8137 12.29C86.9837 11.63 87.3537 11.1 87.9237 10.7C88.5037 10.3 89.2787 10.1 90.2487 10.1C90.9087 10.1 91.4837 10.205 91.9737 10.415C92.4637 10.615 92.8437 10.92 93.1137 11.33C93.3937 11.74 93.5337 12.255 93.5337 12.875V15.92C93.5337 16.3 93.7137 16.49 94.0737 16.49C94.2437 16.49 94.4037 16.465 94.5537 16.415L94.4337 17.69C94.1737 17.82 93.8487 17.885 93.4587 17.885C93.1087 17.885 92.7937 17.825 92.5137 17.705C92.2337 17.585 92.0137 17.405 91.8537 17.165C91.6937 16.915 91.6137 16.605 91.6137 16.235V16.175L91.9737 16.115C91.9137 16.495 91.7487 16.82 91.4787 17.09C91.2087 17.35 90.8787 17.55 90.4887 17.69C90.1087 17.83 89.7137 17.9 89.3037 17.9C88.7937 17.9 88.3537 17.825 87.9837 17.675C87.6137 17.515 87.3287 17.285 87.1287 16.985C86.9287 16.685 86.8287 16.315 86.8287 15.875C86.8287 15.315 87.0087 14.86 87.3687 14.51C87.7287 14.15 88.2437 13.905 88.9137 13.775L91.7337 13.205L91.7187 14.48L89.9187 14.84C89.5787 14.91 89.3187 15.005 89.1387 15.125C88.9687 15.235 88.8837 15.42 88.8837 15.68C88.8837 15.93 88.9737 16.12 89.1537 16.25C89.3437 16.38 89.5687 16.445 89.8287 16.445C90.0387 16.445 90.2437 16.42 90.4437 16.37C90.6437 16.32 90.8237 16.24 90.9837 16.13C91.1437 16.02 91.2687 15.87 91.3587 15.68C91.4487 15.49 91.4937 15.26 91.4937 14.99V12.965ZM99.2077 10.1C99.8777 10.1 100.443 10.2 100.903 10.4C101.373 10.59 101.748 10.855 102.028 11.195C102.318 11.525 102.523 11.895 102.643 12.305L100.723 12.995C100.623 12.545 100.453 12.205 100.213 11.975C99.9727 11.745 99.6477 11.63 99.2377 11.63C98.8577 11.63 98.5327 11.72 98.2627 11.9C97.9927 12.07 97.7877 12.335 97.6477 12.695C97.5077 13.045 97.4377 13.485 97.4377 14.015C97.4377 14.545 97.5077 14.985 97.6477 15.335C97.7977 15.685 98.0077 15.945 98.2777 16.115C98.5577 16.285 98.8827 16.37 99.2527 16.37C99.5527 16.37 99.8077 16.32 100.018 16.22C100.228 16.11 100.398 15.955 100.528 15.755C100.668 15.555 100.763 15.315 100.813 15.035L102.673 15.635C102.563 16.085 102.358 16.48 102.058 16.82C101.758 17.16 101.373 17.425 100.903 17.615C100.433 17.805 99.8877 17.9 99.2677 17.9C98.4977 17.9 97.8177 17.745 97.2277 17.435C96.6377 17.125 96.1827 16.68 95.8627 16.1C95.5427 15.52 95.3827 14.82 95.3827 14C95.3827 13.18 95.5427 12.48 95.8627 11.9C96.1827 11.32 96.6327 10.875 97.2127 10.565C97.7927 10.255 98.4577 10.1 99.2077 10.1ZM104.269 17.75V6.965H106.324V11.525C106.564 11.045 106.894 10.69 107.314 10.46C107.734 10.22 108.209 10.1 108.739 10.1C109.259 10.1 109.719 10.2 110.119 10.4C110.529 10.6 110.849 10.905 111.079 11.315C111.319 11.715 111.439 12.22 111.439 12.83V17.75H109.384V13.43C109.384 12.78 109.259 12.335 109.009 12.095C108.759 11.845 108.439 11.72 108.049 11.72C107.759 11.72 107.479 11.79 107.209 11.93C106.949 12.06 106.734 12.28 106.564 12.59C106.404 12.89 106.324 13.29 106.324 13.79V17.75H104.269ZM114.592 9.17C114.162 9.17 113.842 9.08 113.632 8.9C113.422 8.71 113.317 8.435 113.317 8.075C113.317 7.705 113.422 7.43 113.632 7.25C113.842 7.06 114.162 6.965 114.592 6.965C115.022 6.965 115.342 7.06 115.552 7.25C115.762 7.43 115.867 7.705 115.867 8.075C115.867 8.435 115.762 8.71 115.552 8.9C115.342 9.08 115.022 9.17 114.592 9.17ZM115.612 10.25V17.75H113.557V10.25H115.612ZM117.79 17.75V10.25H119.635L119.755 12.5L119.5 12.26C119.62 11.77 119.81 11.365 120.07 11.045C120.33 10.725 120.645 10.49 121.015 10.34C121.395 10.18 121.81 10.1 122.26 10.1C122.78 10.1 123.24 10.2 123.64 10.4C124.05 10.6 124.37 10.905 124.6 11.315C124.84 11.715 124.96 12.22 124.96 12.83V17.75H122.905V13.415C122.905 12.775 122.78 12.335 122.53 12.095C122.28 11.845 121.955 11.72 121.555 11.72C121.275 11.72 121 11.79 120.73 11.93C120.47 12.06 120.255 12.275 120.085 12.575C119.925 12.875 119.845 13.275 119.845 13.775V17.75H117.79ZM130.557 17.9C129.767 17.9 129.077 17.745 128.487 17.435C127.907 17.125 127.457 16.68 127.137 16.1C126.817 15.52 126.657 14.82 126.657 14C126.657 13.18 126.817 12.48 127.137 11.9C127.457 11.32 127.902 10.875 128.472 10.565C129.052 10.255 129.712 10.1 130.452 10.1C131.212 10.1 131.857 10.255 132.387 10.565C132.917 10.865 133.322 11.28 133.602 11.81C133.882 12.33 134.022 12.925 134.022 13.595C134.022 13.795 134.017 13.985 134.007 14.165C133.997 14.345 133.982 14.505 133.962 14.645H127.977V13.22H133.062L132.072 13.58C132.072 12.95 131.927 12.465 131.637 12.125C131.357 11.785 130.957 11.615 130.437 11.615C130.057 11.615 129.727 11.705 129.447 11.885C129.177 12.065 128.972 12.335 128.832 12.695C128.692 13.045 128.622 13.49 128.622 14.03C128.622 14.56 128.697 15 128.847 15.35C129.007 15.69 129.227 15.945 129.507 16.115C129.797 16.285 130.142 16.37 130.542 16.37C130.982 16.37 131.337 16.285 131.607 16.115C131.877 15.945 132.087 15.71 132.237 15.41L133.872 16.04C133.712 16.43 133.467 16.765 133.137 17.045C132.817 17.325 132.432 17.54 131.982 17.69C131.542 17.83 131.067 17.9 130.557 17.9Z" fill="#ECECEC"/>
<path fill-rule="evenodd" clip-rule="evenodd" d="M10.806 23.1675C5.37643 23.1675 1.11366 19.5301 0.150661 14.2574C0.138677 14.1918 0.121856 14.0928 0.100197 13.9604L5.48026 13.9605C5.50384 14.0398 5.52191 14.099 5.53448 14.1379C6.33214 16.613 8.49868 17.8928 10.806 17.8928C13.1171 17.8928 15.2871 16.6355 16.0815 14.142C16.0942 14.1022 16.1124 14.0416 16.1363 13.9604H21.5118C21.4938 14.0711 21.4799 14.1539 21.4701 14.2088C20.5245 19.5077 16.2522 23.1675 10.806 23.1675ZM10.806 0.75C16.485 0.75 20.8876 4.6932 21.573 10.3882C21.5828 10.4698 21.5958 10.593 21.612 10.7579H16.3109C16.2956 10.6643 16.2837 10.5945 16.2751 10.5485C15.7133 7.54201 13.3449 6.02471 10.806 6.02471C8.29615 6.02471 5.95288 7.50751 5.3569 10.4459C5.34308 10.5141 5.32448 10.618 5.30111 10.7579H0C0.0234215 10.5265 0.0426861 10.3537 0.0577937 10.2396C0.801238 4.62472 5.17646 0.75 10.806 0.75Z" fill="url(#paint0_linear_2_1686)"/>
<defs>
<linearGradient id="paint0_linear_2_1686" x1="-5.10575e-07" y1="23.1675" x2="22.2296" y2="4.50334" gradientUnits="userSpaceOnUse">
<stop stop-color="#40E0CF"/>
<stop offset="0.715921" stop-color="#36CDCF"/>
</linearGradient>
</defs>
</svg>
