<svg width="14" height="12" viewBox="0 0 14 12" fill="none" xmlns="http://www.w3.org/2000/svg">
<path d="M12.3333 0.907877H1.66659C0.933252 0.907877 0.339919 1.50788 0.339919 2.24121L0.333252 10.2412C0.333252 10.9745 0.933252 11.5745 1.66659 11.5745H12.3333C13.0666 11.5745 13.6666 10.9745 13.6666 10.2412V2.24121C13.6666 1.50788 13.0666 0.907877 12.3333 0.907877ZM12.0666 3.74121L7.35325 6.68788C7.13992 6.82121 6.85992 6.82121 6.64659 6.68788L1.93325 3.74121C1.76659 3.63454 1.66659 3.45454 1.66659 3.26121C1.66659 2.81454 2.15325 2.54788 2.53325 2.78121L6.99992 5.57454L11.4666 2.78121C11.8466 2.54788 12.3333 2.81454 12.3333 3.26121C12.3333 3.45454 12.2333 3.63454 12.0666 3.74121Z" fill="#08262E"/>
</svg>
