<svg width="16" height="10" viewBox="0 0 16 10" fill="none" xmlns="http://www.w3.org/2000/svg">
<path d="M10.6667 4.33368C11.7734 4.33368 12.6601 3.44035 12.6601 2.33368C12.6601 1.22701 11.7734 0.333679 10.6667 0.333679C9.56008 0.333679 8.66675 1.22701 8.66675 2.33368C8.66675 3.44035 9.56008 4.33368 10.6667 4.33368ZM5.33341 4.33368C6.44008 4.33368 7.32675 3.44035 7.32675 2.33368C7.32675 1.22701 6.44008 0.333679 5.33341 0.333679C4.22675 0.333679 3.33341 1.22701 3.33341 2.33368C3.33341 3.44035 4.22675 4.33368 5.33341 4.33368ZM5.33341 5.66701C3.78008 5.66701 0.666748 6.44701 0.666748 8.00035V9.00035C0.666748 9.36701 0.966748 9.66701 1.33341 9.66701H9.33341C9.70008 9.66701 10.0001 9.36701 10.0001 9.00035V8.00035C10.0001 6.44701 6.88675 5.66701 5.33341 5.66701ZM10.6667 5.66701C10.4734 5.66701 10.2534 5.68035 10.0201 5.70035C10.0334 5.70701 10.0401 5.72035 10.0467 5.72701C10.8067 6.28035 11.3334 7.02035 11.3334 8.00035V9.00035C11.3334 9.23368 11.2867 9.46035 11.2134 9.66701H14.6667C15.0334 9.66701 15.3334 9.36701 15.3334 9.00035V8.00035C15.3334 6.44701 12.2201 5.66701 10.6667 5.66701Z" fill="#08464B"/>
</svg>
