<svg width="75" height="17" viewBox="0 0 75 17" fill="none" xmlns="http://www.w3.org/2000/svg">
<path d="M10.6667 7.33368C11.7734 7.33368 12.6601 6.44035 12.6601 5.33368C12.6601 4.22701 11.7734 3.33368 10.6667 3.33368C9.56008 3.33368 8.66675 4.22701 8.66675 5.33368C8.66675 6.44035 9.56008 7.33368 10.6667 7.33368ZM5.33341 7.33368C6.44008 7.33368 7.32675 6.44035 7.32675 5.33368C7.32675 4.22701 6.44008 3.33368 5.33341 3.33368C4.22675 3.33368 3.33341 4.22701 3.33341 5.33368C3.33341 6.44035 4.22675 7.33368 5.33341 7.33368ZM5.33341 8.66701C3.78008 8.66701 0.666748 9.44701 0.666748 11.0003V12.0003C0.666748 12.367 0.966748 12.667 1.33341 12.667H9.33341C9.70008 12.667 10.0001 12.367 10.0001 12.0003V11.0003C10.0001 9.44701 6.88675 8.66701 5.33341 8.66701ZM10.6667 8.66701C10.4734 8.66701 10.2534 8.68035 10.0201 8.70035C10.0334 8.70701 10.0401 8.72035 10.0467 8.72701C10.8067 9.28035 11.3334 10.0203 11.3334 11.0003V12.0003C11.3334 12.2337 11.2867 12.4603 11.2134 12.667H14.6667C15.0334 12.667 15.3334 12.367 15.3334 12.0003V11.0003C15.3334 9.44701 12.2201 8.66701 10.6667 8.66701Z" fill="#08464B"/>
<path d="M22.842 13.3431V7.00112C22.842 6.81446 22.842 6.62312 22.842 6.42712C22.8513 6.22179 22.8607 6.00712 22.87 5.78312C22.5527 6.09112 22.1887 6.35712 21.778 6.58112C21.3767 6.79579 20.9613 6.94979 20.532 7.04312L20.252 5.74112C20.448 5.71312 20.6767 5.64779 20.938 5.54512C21.1993 5.44246 21.47 5.31179 21.75 5.15312C22.03 4.99446 22.2867 4.82646 22.52 4.64912C22.7533 4.46246 22.9353 4.28046 23.066 4.10312H24.326V13.3431H22.842ZM30.0288 13.4831C28.9181 13.4831 28.0455 13.0818 27.4108 12.2791C26.7855 11.4671 26.4728 10.2818 26.4728 8.72312C26.4728 7.16446 26.7855 5.98379 27.4108 5.18112C28.0455 4.36912 28.9181 3.96312 30.0288 3.96312C31.1488 3.96312 32.0215 4.36912 32.6468 5.18112C33.2815 5.98379 33.5988 7.16446 33.5988 8.72312C33.5988 10.2818 33.2815 11.4671 32.6468 12.2791C32.0215 13.0818 31.1488 13.4831 30.0288 13.4831ZM30.0288 12.2091C30.4768 12.2091 30.8501 12.0831 31.1488 11.8311C31.4568 11.5698 31.6855 11.1825 31.8348 10.6691C31.9935 10.1465 32.0728 9.49779 32.0728 8.72312C32.0728 7.94846 31.9935 7.30446 31.8348 6.79112C31.6855 6.26846 31.4568 5.88112 31.1488 5.62912C30.8501 5.36779 30.4768 5.23712 30.0288 5.23712C29.5808 5.23712 29.2028 5.36779 28.8948 5.62912C28.5961 5.88112 28.3721 6.26846 28.2228 6.79112C28.0735 7.30446 27.9988 7.94846 27.9988 8.72312C27.9988 9.49779 28.0735 10.1465 28.2228 10.6691C28.3721 11.1825 28.5961 11.5698 28.8948 11.8311C29.2028 12.0831 29.5808 12.2091 30.0288 12.2091ZM37.2658 13.3431V7.00112C37.2658 6.81446 37.2658 6.62312 37.2658 6.42712C37.2752 6.22179 37.2845 6.00712 37.2938 5.78312C36.9765 6.09112 36.6125 6.35712 36.2018 6.58112C35.8005 6.79579 35.3852 6.94979 34.9558 7.04312L34.6758 5.74112C34.8718 5.71312 35.1005 5.64779 35.3618 5.54512C35.6232 5.44246 35.8938 5.31179 36.1738 5.15312C36.4538 4.99446 36.7105 4.82646 36.9438 4.64912C37.1772 4.46246 37.3592 4.28046 37.4898 4.10312H38.7498V13.3431H37.2658ZM46.0486 8.96112V10.3471H41.2746V8.96112H46.0486ZM47.6538 13.3431V12.2511C48.5405 11.6165 49.2825 11.0565 49.8798 10.5711C50.4865 10.0858 50.9718 9.63779 51.3358 9.22712C51.6998 8.81646 51.9612 8.42912 52.1198 8.06512C52.2878 7.69179 52.3718 7.31379 52.3718 6.93112C52.3718 6.43646 52.2178 6.03512 51.9098 5.72712C51.6018 5.41912 51.1725 5.26512 50.6218 5.26512C50.0432 5.26512 49.5812 5.46112 49.2358 5.85312C48.8998 6.23579 48.7085 6.76312 48.6618 7.43512L47.3598 6.83312C47.4252 6.24512 47.5978 5.73646 47.8778 5.30712C48.1578 4.87779 48.5358 4.54646 49.0118 4.31312C49.4972 4.07979 50.0572 3.96312 50.6918 3.96312C51.2145 3.96312 51.6718 4.03779 52.0638 4.18712C52.4652 4.33646 52.8012 4.54646 53.0718 4.81712C53.3425 5.07846 53.5478 5.38646 53.6878 5.74112C53.8372 6.09579 53.9118 6.47379 53.9118 6.87512C53.9118 7.46312 53.7672 8.03246 53.4778 8.58312C53.1885 9.12446 52.7312 9.67979 52.1058 10.2491C51.4805 10.8185 50.6592 11.4298 49.6418 12.0831V12.1111C49.7538 12.0925 49.9078 12.0831 50.1038 12.0831C50.2998 12.0738 50.4958 12.0691 50.6918 12.0691C50.8878 12.0598 51.0465 12.0551 51.1678 12.0551H54.0798V13.3431H47.6538ZM58.9086 13.4831C58.0873 13.4831 57.4106 13.3058 56.8786 12.9511C56.356 12.5965 55.9406 12.0831 55.6326 11.4111L57.0326 10.6831C57.1726 11.1311 57.3826 11.4998 57.6626 11.7891C57.952 12.0691 58.3766 12.2091 58.9366 12.2091C59.3286 12.2091 59.66 12.1391 59.9306 11.9991C60.2106 11.8498 60.4253 11.6445 60.5746 11.3831C60.724 11.1125 60.7986 10.7905 60.7986 10.4171C60.7986 10.0251 60.7286 9.69846 60.5886 9.43712C60.4486 9.17579 60.248 8.97979 59.9866 8.84912C59.7253 8.70912 59.3986 8.63912 59.0066 8.63912C58.736 8.63912 58.484 8.66712 58.2506 8.72312C58.0173 8.77912 57.8073 8.86779 57.6206 8.98912C57.434 9.10112 57.2706 9.25046 57.1306 9.43712L55.8986 9.19912L56.4586 4.10312H61.8346V5.39112H57.6486L57.3126 7.99512L57.2846 8.14912H57.3126C57.5273 7.91579 57.8026 7.73379 58.1386 7.60312C58.484 7.47246 58.89 7.40712 59.3566 7.40712C59.954 7.40712 60.4673 7.53312 60.8966 7.78512C61.326 8.02779 61.662 8.36846 61.9046 8.80712C62.1473 9.24579 62.2686 9.75446 62.2686 10.3331C62.2686 10.8371 62.1846 11.2851 62.0166 11.6771C61.8486 12.0691 61.6106 12.4005 61.3026 12.6711C60.9946 12.9418 60.6353 13.1471 60.2246 13.2871C59.8233 13.4178 59.3846 13.4831 58.9086 13.4831ZM67.4351 13.4831C66.3244 13.4831 65.4517 13.0818 64.8171 12.2791C64.1917 11.4671 63.8791 10.2818 63.8791 8.72312C63.8791 7.16446 64.1917 5.98379 64.8171 5.18112C65.4517 4.36912 66.3244 3.96312 67.4351 3.96312C68.5551 3.96312 69.4277 4.36912 70.0531 5.18112C70.6877 5.98379 71.0051 7.16446 71.0051 8.72312C71.0051 10.2818 70.6877 11.4671 70.0531 12.2791C69.4277 13.0818 68.5551 13.4831 67.4351 13.4831ZM67.4351 12.2091C67.8831 12.2091 68.2564 12.0831 68.5551 11.8311C68.8631 11.5698 69.0917 11.1825 69.2411 10.6691C69.3997 10.1465 69.4791 9.49779 69.4791 8.72312C69.4791 7.94846 69.3997 7.30446 69.2411 6.79112C69.0917 6.26846 68.8631 5.88112 68.5551 5.62912C68.2564 5.36779 67.8831 5.23712 67.4351 5.23712C66.9871 5.23712 66.6091 5.36779 66.3011 5.62912C66.0024 5.88112 65.7784 6.26846 65.6291 6.79112C65.4797 7.30446 65.4051 7.94846 65.4051 8.72312C65.4051 9.49779 65.4797 10.1465 65.6291 10.6691C65.7784 11.1825 66.0024 11.5698 66.3011 11.8311C66.6091 12.0831 66.9871 12.2091 67.4351 12.2091Z" fill="#08464B"/>
</svg>
