<svg width="12" height="13" viewBox="0 0 12 13" fill="none" xmlns="http://www.w3.org/2000/svg">
<path d="M10.8144 8.4195L9.12108 8.22616C8.71441 8.1795 8.31441 8.3195 8.02775 8.60616L6.80108 9.83283C4.91441 8.87283 3.36774 7.33283 2.40775 5.4395L3.64108 4.20616C3.92775 3.9195 4.06774 3.5195 4.02108 3.11283L3.82774 1.43283C3.74774 0.759497 3.18108 0.252831 2.50108 0.252831H1.34775C0.594412 0.252831 -0.0322548 0.879497 0.0144119 1.63283C0.367745 7.32616 4.92108 11.8728 10.6077 12.2262C11.3611 12.2728 11.9877 11.6462 11.9877 10.8928V9.7395C11.9944 9.06616 11.4877 8.4995 10.8144 8.4195Z" fill="#08262E"/>
</svg>
