<svg width="12" height="12" viewBox="0 0 12 12" fill="none" xmlns="http://www.w3.org/2000/svg">
<path d="M4.4375 0.375C5.51494 0.375 6.54825 0.803012 7.31012 1.56488C8.07199 2.32675 8.5 3.36006 8.5 4.4375C8.5 5.44375 8.13125 6.36875 7.525 7.08125L7.69375 7.25H8.1875L11.3125 10.375L10.375 11.3125L7.25 8.1875V7.69375L7.08125 7.525C6.36875 8.13125 5.44375 8.5 4.4375 8.5C3.36006 8.5 2.32675 8.07199 1.56488 7.31012C0.803012 6.54825 0.375 5.51494 0.375 4.4375C0.375 3.36006 0.803012 2.32675 1.56488 1.56488C2.32675 0.803012 3.36006 0.375 4.4375 0.375ZM4.4375 1.625C2.875 1.625 1.625 2.875 1.625 4.4375C1.625 6 2.875 7.25 4.4375 7.25C6 7.25 7.25 6 7.25 4.4375C7.25 2.875 6 1.625 4.4375 1.625Z" fill="#BFBFBF"/>
</svg>
