<svg width="14" height="15" viewBox="0 0 14 15" fill="none" xmlns="http://www.w3.org/2000/svg">
<path fill-rule="evenodd" clip-rule="evenodd" d="M1.92955 1.92955C0.694079 3.16501 0 4.84067 0 6.58788C0 8.3351 0.694079 10.0108 1.92955 11.2462C3.0864 12.4031 4.6292 13.0852 6.25531 13.1674C6.09593 12.8541 5.97192 12.5198 5.88856 12.1697C5.43675 11.9329 4.9975 11.4649 4.62222 10.7613C4.50458 10.5408 4.39598 10.3006 4.29724 10.044C4.81298 9.92915 5.36901 9.85136 5.95436 9.81811C6.15903 9.13295 6.52151 8.51589 6.99963 8.0091V6.99963H8.40409C8.97946 6.73497 9.61982 6.58738 10.2947 6.58738C10.9695 6.58738 11.6098 6.73497 12.1852 6.99963H12.3375C12.3358 7.02325 12.334 7.04685 12.3321 7.07043C12.6063 7.20877 12.8645 7.37417 13.1032 7.5631C13.1512 7.24219 13.1758 6.9163 13.1758 6.58788C13.1758 4.84067 12.4817 3.16501 11.2462 1.92955C10.0108 0.694079 8.3351 0 6.58788 0C4.84067 0 3.16501 0.694079 1.92955 1.92955ZM4.62222 2.41446C5.07679 1.56215 5.62441 1.05488 6.17614 0.886894V3.36888C5.50912 3.34417 4.8775 3.26183 4.29695 3.13254C4.39494 2.87561 4.50447 2.63515 4.62222 2.41446ZM3.89509 2.0266C3.74933 2.30164 3.61592 2.5981 3.49899 2.91432V2.91514C3.14077 2.79903 2.81056 2.66315 2.51245 2.51163C3.04875 1.97471 3.68565 1.54881 4.38671 1.25829C4.20191 1.50038 4.03747 1.75736 3.89509 2.0266ZM3.24865 3.6991C3.04443 4.45753 2.91926 5.29501 2.88961 6.17614H2.88879H0.838308C0.914745 5.0808 1.30403 4.03043 1.9599 3.14983C2.37144 3.37266 2.8029 3.55654 3.24865 3.6991ZM3.7131 6.17614C3.73786 5.41377 3.84835 4.65662 4.04249 3.91897C4.70787 4.07296 5.42677 4.16766 6.17614 4.19236V6.17614H3.7131ZM6.99963 6.17614V4.19236C7.749 4.16684 8.4679 4.07296 9.13328 3.91897C9.32715 4.65665 9.43737 5.4138 9.46185 6.17614H6.99963ZM4.04249 9.2568C3.85885 8.57578 3.74274 7.81241 3.71392 6.99963H6.17614V8.98423C5.45783 9.00648 4.74332 9.09776 4.04249 9.2568ZM3.89509 11.1492C4.03772 11.4184 4.20244 11.6754 4.38753 11.9175H4.38671C3.68565 11.627 3.04875 11.2011 2.51245 10.6641C2.8304 10.5044 3.16023 10.3695 3.49899 10.2606C3.61109 10.5653 3.74342 10.8621 3.89509 11.1492ZM2.88879 6.99963C2.91412 7.83631 3.03485 8.66737 3.24865 9.47667C2.77926 9.62902 2.34693 9.81348 1.9599 10.0259C1.30399 9.14536 0.914699 8.09498 0.838308 6.99963H2.88879ZM11.2159 3.14983C11.8718 4.03041 12.2611 5.08079 12.3375 6.17614H10.287C10.2565 5.29501 10.1313 4.4567 9.92712 3.6991C10.3965 3.54675 10.8288 3.36229 11.2159 3.14983ZM9.6776 2.91432C9.55984 2.5981 9.42644 2.30164 9.28068 2.0266C9.13328 1.75073 8.96858 1.49216 8.78906 1.25911C9.48969 1.54924 10.1263 1.97457 10.6625 2.51081C10.3451 2.6705 10.0158 2.80541 9.6776 2.91432ZM8.87853 3.13178C8.78504 2.88622 8.67651 2.64666 8.55354 2.41446C8.09898 1.56215 7.55136 1.05571 6.99963 0.886894V3.36806C7.66654 3.34336 8.29805 3.26103 8.87853 3.13178Z" fill="#08262E"/>
<path d="M10.2943 7.41121C9.80767 7.41121 9.3258 7.50706 8.8762 7.69329C8.42661 7.87952 8.0181 8.15247 7.67399 8.49658C6.97904 9.19153 6.58862 10.1341 6.58862 11.1169C6.58862 12.0997 6.97904 13.0423 7.67399 13.7372C8.0181 14.0813 8.42661 14.3543 8.8762 14.5405C9.3258 14.7267 9.80767 14.8226 10.2943 14.8226C11.2771 14.8226 12.2197 14.4322 12.9146 13.7372C13.6096 13.0423 14 12.0997 14 11.1169C14 10.6303 13.9041 10.1484 13.7179 9.69879C13.5317 9.24919 13.2587 8.84068 12.9146 8.49658C12.5705 8.15247 12.162 7.87952 11.7124 7.69329C11.2628 7.50706 10.7809 7.41121 10.2943 7.41121ZM11.8507 12.6733L9.92374 11.4875V9.26405H10.4796V11.191L12.1472 12.1915L11.8507 12.6733Z" fill="#08262E"/>
</svg>
