<svg width="14" height="18" viewBox="0 0 14 18" fill="none" xmlns="http://www.w3.org/2000/svg">
<path d="M6.3925 0.949687L1.1425 3.28219C0.6025 3.52219 0.25 4.06219 0.25 4.65469V8.17969C0.25 12.3422 3.13 16.2347 7 17.1797C10.87 16.2347 13.75 12.3422 13.75 8.17969V4.65469C13.75 4.06219 13.3975 3.52219 12.8575 3.28219L7.6075 0.949687C7.225 0.777187 6.775 0.777187 6.3925 0.949687ZM4.9675 12.1472L3.025 10.2047C2.7325 9.91219 2.7325 9.43969 3.025 9.14719C3.3175 8.85469 3.79 8.85469 4.0825 9.14719L5.5 10.5572L9.91 6.14719C10.2025 5.85469 10.675 5.85469 10.9675 6.14719C11.26 6.43969 11.26 6.91219 10.9675 7.20469L6.025 12.1472C5.74 12.4397 5.26 12.4397 4.9675 12.1472Z" fill="#08464B"/>
</svg>
