<svg width="20" height="16" viewBox="0 0 20 16" fill="none" xmlns="http://www.w3.org/2000/svg">
<path d="M7.50053 9.25001C9.34148 9.25001 10.8339 7.75763 10.8339 5.91668C10.8339 4.07573 9.34148 2.58334 7.50053 2.58334C5.65958 2.58334 4.1672 4.07573 4.1672 5.91668C4.1672 7.75763 5.65958 9.25001 7.50053 9.25001Z" fill="#41BCC3"/>
<path d="M7.50053 10.9167C5.27553 10.9167 0.833862 12.0333 0.833862 14.25V15.9167H14.1672V14.25C14.1672 12.0333 9.72553 10.9167 7.50053 10.9167ZM13.9672 2.88334L12.5672 4.29168C13.2672 5.27501 13.2672 6.55001 12.5672 7.53334L13.9672 8.94168C15.6505 7.25834 15.6505 4.71668 13.9672 2.88334ZM16.7255 0.0833435L15.3672 1.44168C17.6755 3.95834 17.6755 7.74168 15.3672 10.3917L16.7255 11.75C19.9755 8.50834 19.9839 3.45834 16.7255 0.0833435Z" fill="#41BCC3"/>
</svg>
