<svg width="14" height="8" viewBox="0 0 14 8" fill="none" xmlns="http://www.w3.org/2000/svg">
<path d="M10.3333 0.666672H8.33325C7.96659 0.666672 7.66659 0.966672 7.66659 1.33334C7.66659 1.70001 7.96659 2.00001 8.33325 2.00001H10.3333C11.4333 2.00001 12.3333 2.9 12.3333 4C12.3333 5.1 11.4333 6 10.3333 6H8.33325C7.96659 6 7.66659 6.3 7.66659 6.66667C7.66659 7.03334 7.96659 7.33334 8.33325 7.33334H10.3333C12.1733 7.33334 13.6666 5.84 13.6666 4C13.6666 2.16 12.1733 0.666672 10.3333 0.666672ZM4.33325 4C4.33325 4.36667 4.63325 4.66667 4.99992 4.66667H8.99992C9.36659 4.66667 9.66659 4.36667 9.66659 4C9.66659 3.63334 9.36659 3.33334 8.99992 3.33334H4.99992C4.63325 3.33334 4.33325 3.63334 4.33325 4ZM5.66659 6H3.66659C2.56659 6 1.66659 5.1 1.66659 4C1.66659 2.9 2.56659 2.00001 3.66659 2.00001H5.66659C6.03325 2.00001 6.33325 1.70001 6.33325 1.33334C6.33325 0.966672 6.03325 0.666672 5.66659 0.666672H3.66659C1.82659 0.666672 0.333252 2.16 0.333252 4C0.333252 5.84 1.82659 7.33334 3.66659 7.33334H5.66659C6.03325 7.33334 6.33325 7.03334 6.33325 6.66667C6.33325 6.3 6.03325 6 5.66659 6Z" fill="#08262E"/>
</svg>
