<svg width="16" height="17" viewBox="0 0 16 17" fill="none" xmlns="http://www.w3.org/2000/svg">
<path d="M13.8333 15.3333H2.16667V6.16668H13.8333V15.3333ZM11.3333 0.333344V2.00001H4.66667V0.333344H3V2.00001H2.16667C1.24167 2.00001 0.5 2.74168 0.5 3.66668V15.3333C0.5 15.7754 0.675595 16.1993 0.988155 16.5119C1.30072 16.8244 1.72464 17 2.16667 17H13.8333C14.2754 17 14.6993 16.8244 15.0118 16.5119C15.3244 16.1993 15.5 15.7754 15.5 15.3333V3.66668C15.5 2.74168 14.75 2.00001 13.8333 2.00001H13V0.333344H11.3333ZM12.1667 9.50001H8V13.6667H12.1667V9.50001Z" fill="#41BCC3"/>
</svg>
