<svg width="16" height="14" viewBox="0 0 16 14" fill="none" xmlns="http://www.w3.org/2000/svg">
<path d="M8.56989 9.44666C8.66322 9.20666 8.60322 8.93333 8.41656 8.74666L7.02322 7.37333L7.04322 7.35333C8.20322 6.05999 9.02989 4.57333 9.51656 2.99999H10.8099C11.1699 2.99999 11.4699 2.7 11.4699 2.34V2.32666C11.4699 1.96666 11.1699 1.66666 10.8099 1.66666H6.80322V0.999995C6.80322 0.633328 6.50322 0.333328 6.13656 0.333328C5.76989 0.333328 5.46989 0.633328 5.46989 0.999995V1.66666H1.46322C1.10322 1.66666 0.803223 1.96666 0.803223 2.32666C0.803223 2.69333 1.10322 2.98666 1.46322 2.98666H8.24989C7.80322 4.27999 7.09656 5.5 6.13656 6.56666C5.59656 5.97333 5.14322 5.32666 4.76322 4.64666C4.65656 4.45333 4.46322 4.33333 4.24322 4.33333C3.78322 4.33333 3.48989 4.83333 3.71656 5.23333C4.13656 5.98666 4.64989 6.70666 5.24989 7.37333L2.33656 10.2467C2.06989 10.5067 2.06989 10.9333 2.33656 11.1933C2.59656 11.4533 3.01656 11.4533 3.28322 11.1933L6.13656 8.33333L7.48322 9.68C7.82322 10.02 8.40322 9.89333 8.56989 9.44666ZM11.8032 5.66666C11.4032 5.66666 11.0432 5.91333 10.9032 6.29333L8.45656 12.8267C8.29656 13.2333 8.60322 13.6667 9.03656 13.6667C9.29656 13.6667 9.52989 13.5067 9.62322 13.26L10.2166 11.6667H13.3832L13.9832 13.26C14.0766 13.5 14.3099 13.6667 14.5699 13.6667C15.0032 13.6667 15.3099 13.2333 15.1566 12.8267L12.7099 6.29333C12.5632 5.91333 12.2032 5.66666 11.8032 5.66666ZM10.7232 10.3333L11.8032 7.44666L12.8832 10.3333H10.7232Z" fill="#08262E"/>
</svg>
